<?xml version="1.0" encoding="UTF-8"?>
<svg version="1.1" viewBox="0 0 800 800" width="200" height="200" xmlns="http://www.w3.org/2000/svg">
<path transform="translate(0)" d="m0 0h800v800h-800z" fill="#FEFEFE"/>
<path transform="translate(425,319)" d="m0 0h160l65 1 1 2-1 16h-498v-18z" fill="#040304"/>
<path transform="translate(173,343)" d="m0 0h25l2 1 2 14 6 18 8 14 8 10 5 5 9 8 13 8 16 6 15 4v18l-1 9-13-2-15-4-16-7-14-9-10-8-11-11-10-13-11-21-6-19-3-17z" fill="#080405"/>
<path transform="translate(298,214)" d="m0 0 16 2 16 4 16 7 11 6 12 9 16 16 7 10 8 14 8 20 2 7v4l-26 1-4-9-6-14-7-11-11-13-14-11-16-8-18-5-10-2z" fill="#070405"/>
<path transform="translate(280,214)" d="m0 0h3v28l-18 4-13 5-12 7-9 7-10 10-10 15-6 14-4 10h-25l-1-1 1-8 5-15 8-16 9-14 12-13 9-8 10-7 15-8 17-6z" fill="#070405"/>
<path transform="translate(592,345)" d="m0 0h30v101l-5 1-25-1z" fill="#E72633"/>
<path transform="translate(441,345)" d="m0 0h30v101l-4 1-26-1z" fill="#E72633"/>
<path transform="translate(592,213)" d="m0 0h30l1 2-1 93-1 6-28-1-1-12z" fill="#E72633"/>
<path transform="translate(468,212)" d="m0 0 3 1v46l-1 54-1 1-28-1-1-100z" fill="#E72633"/>
<path transform="translate(432,492)" d="m0 0h14l4 1 1 21v8l-3 9-6 4h-14l-3-3v-2h14l4-2 2-5v-3l-8 4-7-1-6-7-1-3v-10l4-8z" fill="#26181B"/>
<path transform="translate(83,480)" d="m0 0 5 1 1 13 4-2h10l5 4 2 5v13l-4 7-5 3h-15l-3-2z" fill="#24181B"/>
<path transform="translate(750,480)" d="m0 0 4 1v41l-1 1-8 1h-11l-5-5-2-5v-12l5-8 5-2h12v-11z" fill="#1C181B"/>
<path transform="translate(358,480)" d="m0 0h4l1 4-1 39-9 1h-11l-6-7-1-4v-10l4-8 6-3h12v-11z" fill="#1F171A"/>
<path transform="translate(125,492)" d="m0 0h12l5 4 3 7v10l-3 6-6 5-8 1-6-3-4-5-2-10 2-8 5-6z" fill="#110B0C"/>
<path transform="translate(293,492)" d="m0 0h11l7 6 2 5v10l-3 6-6 5-8 1-6-3-4-5-2-6v-7l4-8z" fill="#120D0F"/>
<path transform="translate(538,482)" d="m0 0h16l7 3 3 5v9l-3 5-4 3-3 1h-11v15l-5 1-1-2v-39z" fill="#221B1E"/>
<path transform="translate(425,319)" d="m0 0h160l65 1 1 2-3 1-7-1h-187l-292-1v-1z" fill="#1E1C1F"/>
<path transform="translate(649,328)" d="m0 0h1v10h-498l1-3v2l24-1 8-1h19l2 1 443 1z" fill="#1D1C1F"/>
<path transform="translate(272,481)" d="m0 0 3 1 1 42h-5l-1-1-1-19-20-1v21h-5v-42h5v16h20l1-16z" fill="#201C1F"/>
<path transform="translate(47,482)" d="m0 0h28v4l-10 1h-13v12h23v4l-23 1v15h23v4l-27 1-1-1z" fill="#161417"/>
<path transform="translate(389,492)" d="m0 0 4 1v2l6-3h10l4 3 2 10v19h-5l-1-1-1-26-10 1-3 1-1 11v13l-5 1-1-3v-28z" fill="#3B1C20"/>
<path transform="translate(164,492)" d="m0 0h11l4 6v26l-5-1-1-26h-7l-7 1v25l-4 1-2-1v-30z" fill="#1D171A"/>
<path transform="translate(295,496)" d="m0 0h7l5 5 1 2v10l-4 6-2 1h-7l-5-6-1-9 3-7z" fill="#FEFEFE"/>
<path transform="translate(127,496)" d="m0 0h7l5 5 1 2v10l-4 6-2 1h-6l-5-4-1-2v-12z" fill="#FEFEFE"/>
<path transform="translate(739,496)" d="m0 0h8l2 2v17l-1 3-6 2-6-1-4-5v-12l4-5z" fill="#FEFEFE"/>
<path transform="translate(97,496)" d="m0 0 6 2 2 4v11l-3 5-4 2h-7l-3-2v-19z" fill="#FEFEFE"/>
<path transform="translate(347,496)" d="m0 0h8l2 2v18l-3 3-8 1-5-5-1-2v-10l3-5z" fill="#FEFEFE"/>
<path transform="translate(186,492)" d="m0 0 5 1 6 12 4 9 2-3 7-17 2-2h3l-1 7-16 36h-5l2-6 2-5-1-6-10-24z" fill="#100B0D"/>
<path transform="translate(466,492)" d="m0 0h11l5 3v3l-7-1h-8l-2 1v5l5 2 10 3 3 4-1 7-4 4-2 1h-13l-4-2-1-5 5 1 3 1h8l3-2v-4l-13-4-4-3-1-5 3-7z" fill="#140D0F"/>
<path transform="translate(434,496)" d="m0 0h9l2 2v17l-5 3-7 1-4-5-1-2v-9l4-6z" fill="#FEFEFE"/>
<path transform="translate(607,483)" d="m0 0 4 1v8h8l4 1-2 4-10-1 1 23 11 1-2 4h-10l-5-5-2-23-5-2v-1l6-1 1-8z" fill="#1A1618"/>
<path transform="translate(569,492)" d="m0 0 5 1 6 15 3 7 4-8 5-13 1-1h5l-3 9-9 21-4 1-3-3-10-25z" fill="#120B0D"/>
<path transform="translate(676,481)" d="m0 0 4 2 1 35 21 1-1 4-25 1-1-1v-41z" fill="#1F191C"/>
<path transform="translate(707,483)" d="m0 0 4 1v8h9l3 1-1 4h-10v18l1 3 9 2v4h-10l-5-5-1-6v-16l-4-2v-2l5-1-1-8z" fill="#24171A"/>
<path transform="translate(522,480)" d="m0 0h4l-1 4h-2l-6 15v18l4 9 5 7v3l-5-1-5-6-4-8-1-4v-18l4-11 5-7z" fill="#080709"/>
<path transform="translate(630,479)" d="m0 0 5 2 5 8 3 8 1 11-2 13-5 10-3 4h-6l2-4 5-7 3-12v-9l-3-12-4-6v-2h-2l-1-3z" fill="#1E1A1D"/>
<path transform="translate(557,319)" d="m0 0h28l65 1 1 2-3 1-7-1h-161v-2z" fill="#331D21"/>
<path transform="translate(547,486)" d="m0 0 8 1 4 4v8l-5 4-10 1-1-1v-15z" fill="#FEFEFE"/>
<path transform="translate(322,480)" d="m0 0 5 1v43h-5l-1-1v-42z" fill="#291A1D"/>
<path transform="translate(272,481)" d="m0 0 3 1 1 42h-5l-1-1-1-25 1-16z" fill="#171417"/>
<path transform="translate(400,493)" d="m0 0h11l3 5 1 7v19h-5l-1-1-1-26-8-1z" fill="#28181C"/>
<path transform="translate(734,493)" d="m0 0h6l1 3-6 3-2 3v12l5 5 6 3-2 2h-8l-5-5-2-5v-12l5-8z" fill="#191417"/>
<path transform="translate(545,483)" d="m0 0h13l5 4 1 3v9l-3 5-4 3h-13v-2h5v-2l7-2 2-2v-8l-3-3-4-1v-2l-6-1z" fill="#110A0C"/>
<path transform="translate(164,492)" d="m0 0h11l4 6v26l-5-1-1-26-3-1v-2h-6z" fill="#1B1518"/>
<path transform="translate(50,507)" d="m0 0h1l1 12h23v4l-27 1-1-1v-14l2 1z" fill="#22171A"/>
<path transform="translate(342,493)" d="m0 0 2 1-1 2 2 2h-2l-2 5v10l2 4 2 2 1 5-5-1-5-6-1-4v-10l4-8z" fill="#23191D"/>
<path transform="translate(432,492)" d="m0 0h14l4 1 1 21v8l-2 5-1-4v-22l-1 14h-1l-1-16-2-2h-12-2l-2 1v-3z" fill="#200F12"/>
<path transform="translate(291,495)" d="m0 0 4 1-1 2h-2l-2 7 1 9 4 5 6 1v1l-10 2-5-6-2-6v-7l3-7z" fill="#261A1D"/>
<path transform="translate(373,493)" d="m0 0h5l1 2-1 29-5-1z" fill="#1D1B1E"/>
<path transform="translate(642,500)" d="m0 0h1l1 8-2 13-5 10-3 4h-6l2-4 5-7 4-14h1l1 5z" fill="#200F12"/>
<path transform="translate(482,512)" d="m0 0h1l-1 7-4 4-2 1h-13l-4-2-1-5 5 1 3 1h8l3-2 2-4 2 2z" fill="#170B0E"/>
<path transform="translate(117,501)" d="m0 0h3l2 1 1 12 5 5 5 1v1l-10 2-5-6-2-10z" fill="#27181B"/>
<path transform="translate(93,492)" d="m0 0h10l5 4 2 5v13l-3 3 1-17h-2l-1 3-3-5-10-2-1-3z" fill="#1C0E10"/>
<path transform="translate(515,504)" d="m0 0h1l1 13 4 9 5 7v3l-5-1-5-6-4-8 1-5h2z" fill="#1D1215"/>
<path transform="translate(212,492)" d="m0 0h3l-1 7-9 20h-2v-8l7-17z" fill="#1A1517"/>
<path transform="translate(569,492)" d="m0 0 5 1 6 15 1 6h-3l-2-2-2-3-5-13z" fill="#2A181C"/>
<path transform="translate(106,500)" d="m0 0h2v18l-5 5-2 1h-8l1-3 9-5z" fill="#211518"/>
<path transform="translate(47,482)" d="m0 0h28v4l-10 1h-13v-3l-3 1-2 2z" fill="#291B1F"/>
<path transform="translate(446,524)" d="m0 0 1 2v6l-5 3h-14l-3-3v-2h14l4-2z" fill="#0D080A"/>
<path transform="translate(445,499)" d="m0 0 4 2v28l-2 2-1-6-1-2v-3l-4 1 1-3 2-2z" fill="#1F1A1E"/>
<path transform="translate(463,504)" d="m0 0 12 2 6 3 1 1v6h-3v-3l-13-3-3-3z" fill="#0E090B"/>
<path transform="translate(274,502)" d="m0 0h1l1 22h-5l-1-1v-19z" fill="#1B1619"/>
<path transform="translate(710,496)" d="m0 0h1l1 19 1 3 9 2v4h-10l-4-3v-5h1z" fill="#160D0F"/>
<path transform="translate(186,492)" d="m0 0 5 1 5 9 1 11h-3l-8-19z" fill="#2C181C"/>
<path transform="translate(680,519)" d="m0 0h22l-1 4-25 1 4-2z" fill="#26181B"/>
<path transform="translate(522,480)" d="m0 0h4l-1 4h-2l-6 15-2-2-1-7 6-9z" fill="#140F12"/>
<path transform="translate(249,498)" d="m0 0 20 1 1 5-21-1z" fill="#211B1E"/>
<path transform="translate(139,513)" d="m0 0 3 1 1 4-7 6-8 1-3-1v-2l9-3 4-4z" fill="#180A0D"/>
<path transform="translate(141,497)" d="m0 0 3 2 1 4v10l-2 4-3-2v-14z" fill="#0E0A0C"/>
<path transform="translate(53,499)" d="m0 0h22v4h-18l-1-1h-2z" fill="#141315"/>
<path transform="translate(677,482)" d="m0 0h2v36h-1l-1-5h-1v-30z" fill="#040304"/>
<path transform="translate(576,510)" d="m0 0 4 4h2v2l5 1-1 6-4 1-3-3-3-7z" fill="#0E0A0C"/>
<path transform="translate(245,483)" d="m0 0h1v13h2l3 4v2l-4 2-1 11 2 1-1 5 1 2h-3z" fill="#040304"/>
<path transform="translate(293,492)" d="m0 0h11l5 5h-3l-17-1z" fill="#0B0A0C"/>
<path transform="translate(177,499)" d="m0 0h1l1 5v20h-4v-24h1v21l1-3z" fill="#050405"/>
<path transform="translate(432,492)" d="m0 0h14l-1 4-3-1-7 1-4 1h-2l-2 1v-3z" fill="#0F0A0C"/>
<path transform="translate(246,502)" d="m0 0 3 1v21l-3-1v-4z" fill="#1D1C1F"/>
<path transform="translate(638,521)" d="m0 0 1 2-2 5-1 4-2 3h-6l2-4z" fill="#201114"/>
<path transform="translate(608,519)" d="m0 0 4 1 2-1 9 1-2 4h-10l-4-4z" fill="#211619"/>
<path transform="translate(591,504)" d="m0 0h2l-1 5-4 10-1-2-4-2 3-6 2 1z" fill="#2B1518"/>
<path transform="translate(599,493)" d="m0 0h10v2h-2v15h-2l-1-14-5-2z" fill="#421317"/>
<path transform="translate(630,479)" d="m0 0 5 2 3 4-1 5h-3l-3-5v-2h-2l-1-3z" fill="#2E1519"/>
<path transform="translate(83,480)" d="m0 0h4v14l-4-1z" fill="#0A090A"/>
<path transform="translate(425,530)" d="m0 0h7l2 2 7 1 3 1-2 1h-14l-3-3z" fill="#241B1E"/>
<path transform="translate(304,518)" d="m0 0 2 1v4l-6 2-7-1v-2l9-3z" fill="#170A0C"/>
<path transform="translate(458,517)" d="m0 0 5 1 8 2-4 4-7-1-2-3z" fill="#301A1E"/>
<path transform="translate(637,487)" d="m0 0h2l2 5-1 6v5h-2l-3-14z" fill="#1A0C0E"/>
<path transform="translate(212,492)" d="m0 0h3l-1 7h-3l-3 7h-1l1-7 3-6z" fill="#100B0D"/>
<path transform="translate(569,492)" d="m0 0 5 1 1 7-2-1 1 5h-2l-3-8z" fill="#140E10"/>
<path transform="translate(400,493)" d="m0 0h11l1 4h-2l-1 3-1-3-8-1z" fill="#0E080A"/>
<path transform="translate(768,516)" d="m0 0 4 1 1 5-5 1-2-2 1-4z" fill="#1A0F12"/>
<path transform="translate(106,500)" d="m0 0h2v15l-2-1-1-1v-10z" fill="#19181A"/>
<path transform="translate(541,510)" d="m0 0h1v14h-4l-1-2v-8h2v7h2z" fill="#110B0D"/>
<path transform="translate(246,484)" d="m0 0 3 1v13l-1-2h-2z" fill="#1A191C"/>
<path transform="translate(123,495)" d="m0 0 4 1-4 6-5 1 1-6z" fill="#161518"/>
<path transform="translate(389,510)" d="m0 0h1v11h2v-5l2 2v5l-5 1-1-3z" fill="#180C0E"/>
<path transform="translate(511,499)" d="m0 0 3 1v15l-2-2z" fill="#221C1F"/>
<path transform="translate(516,487)" d="m0 0h2l1 6-2 6-2-2-1-7z" fill="#2B1417"/>
<path transform="translate(98,519)" d="m0 0 4 1 1 3-2 1h-8l1-3z" fill="#0A090A"/>
<path transform="translate(139,513)" d="m0 0 3 1 1 4-5 4-2-2 2-5z" fill="#19181B"/>
<path transform="translate(207,508)" d="m0 0m-3 1h3l1 4-3 6h-2v-8z" fill="#1B1A1D"/>
<path transform="translate(186,492)" d="m0 0 5 1 1 4h-2l1 4h-2z" fill="#230F12"/>
<path transform="translate(750,480)" d="m0 0 4 1v8l-2 1-2-4z" fill="#100F11"/>
<path transform="translate(515,504)" d="m0 0h1v15l-4 2 1-5h2z" fill="#441318"/>
<path transform="translate(461,499)" d="m0 0 3 1 1 4h-2v2l2 1-3 1-3-5z" fill="#3B181C"/>
<path transform="translate(516,517)" d="m0 0 2 3 1 5-3 1-3-3 2-4z" fill="#28191C"/>
<path transform="translate(307,513)" d="m0 0 3 1v5l-4 3-2-2z" fill="#1B1A1D"/>
<path transform="translate(271,494)" d="m0 0h1v21h-1l-1-11-1-5h2z" fill="#040304"/>
<path transform="translate(615,492)" d="m0 0 8 1-2 4-7-1z" fill="#471B20"/>
<path transform="translate(374,482)" d="m0 0 5 1-1 4h-5z" fill="#241518"/>
<path transform="translate(139,495)" d="m0 0 3 1-1 5-2 2-3-5v-2z" fill="#2C1519"/>
<path transform="translate(734,493)" d="m0 0h6l1 3-6 1h-4l1-3z" fill="#09080A"/>
<path transform="translate(358,480)" d="m0 0h4l1 4-2 4-1-5-1 5-2-4z" fill="#1C0C0E"/>
</svg>
